PathFileType	4	(X/Y/Z)	C:/Users/opensim2020/Desktop/walking_exp_matlab/subject02_walking09_straight_01.trc																																																																																																																												
DataRate	CameraRate	NumFrames	NumMarkers	Units	OrigDataRate	OrigDataStartFrame	OrigNumFrames																																																																																																																								
100	100	5	42	mm	100	745	293																																																																																																																								
Frame#	Time	LFHD			RFHD			LBHD			RBHD			C7			T10			CLAV			STRN			RBAK			LSHO			LUPA			LELB			LFRM			LWRA			LWRB			LFIN			RSHO			RUPA			RELB			RFRM			RWRA			RWRB			RFIN			LASI			RASI			LPSI			RPSI			LTHI			LKNE			LTIB			LANK			LHEE			LTOE			RTHI			RKNE			RTIB			RANK			RHEE			RTOE			*39			*40			*41		
		X1	Y1	Z1	X2	Y2	Z2	X3	Y3	Z3	X4	Y4	Z4	X5	Y5	Z5	X6	Y6	Z6	X7	Y7	Z7	X8	Y8	Z8	X9	Y9	Z9	X10	Y10	Z10	X11	Y11	Z11	X12	Y12	Z12	X13	Y13	Z13	X14	Y14	Z14	X15	Y15	Z15	X16	Y16	Z16	X17	Y17	Z17	X18	Y18	Z18	X19	Y19	Z19	X20	Y20	Z20	X21	Y21	Z21	X22	Y22	Z22	X23	Y23	Z23	X24	Y24	Z24	X25	Y25	Z25	X26	Y26	Z26	X27	Y27	Z27	X28	Y28	Z28	X29	Y29	Z29	X30	Y30	Z30	X31	Y31	Z31	X32	Y32	Z32	X33	Y33	Z33	X34	Y34	Z34	X35	Y35	Z35	X36	Y36	Z36	X37	Y37	Z37	X38	Y38	Z38	X39	Y39	Z39	X40	Y40	Z40	X41	Y41	Z41	X42	Y42	Z42
																																																																																																																															
220	2.19	512.63184	1756.54065	-1086.98047	494.13348	1736.62891	-944.22516	401.25183	1658.89978	-1114.84253	371.50018	1635.03723	-975.98737	354.27917	1522.18982	-1034.73853	310.17868	1246.4718	-1029.85168	496.995	1460.96167	-1047.9917	556.69281	1291.78699	-1036.51782	304.5108	1347.6366	-967.24115	420.59286	1495.85913	-1216.29504	402.41922	1294.20337	-1300.59216	397.88614	1154.8374	-1313.96851	405.66837	1024.45483	-1332.8772	461.67969	897.23834	-1309.81763	414.41647	901.65009	-1340.97534	432.47375	836.61316	-1345.83643	437.2973	1495.34619	-849.52063	423.22327	1304.44897	-763.23743	451.23608	1159.50989	-744.41425	498.92047	1047.7749	-727.84399	565.60059	930.67523	-751.87958	521.71625	919.73364	-716.61523	568.03931	863.02777	-718.2915	563.63281	999.82642	-1165.44971	544.6485	971.9198	-910.64246	346.81506	1032.9845	-1100.49011	332.91046	1025.85254	-986.1366	534.42963	687.87122	-1221.46704	519.78748	483.06265	-1187.81409	476.46524	291.68008	-1185.29199	488.67487	71.96753	-1140.9696	453.97964	44.6334	-1089.02087	645.53827	38.00124	-1154.06995	462.98285	669.62219	-829.40369	470.38641	471.01804	-831.4353	324.60535	360.36844	-842.49103	190.98189	225.94402	-887.51349	147.38716	199.32504	-956.07788	243.32245	81.41242	-836.78156	387.798	1800.49817	-1014.94	2845.99243	1034.203	-3356.93091	NaN	NaN	NaN
221	2.2	521.44641	1757.62524	-1087.64905	502.83527	1737.45044	-944.99445	410.16586	1659.96436	-1115.9054	380.01627	1635.9165	-977.18152	363.01947	1523.59021	-1036.34827	318.50281	1247.70764	-1032.2395	505.56302	1461.78918	-1049.05688	564.81384	1292.4679	-1037.63403	312.42413	1348.80542	-969.58807	430.30872	1497.18433	-1217.56665	414.61041	1295.48499	-1302.35364	412.38425	1155.90491	-1316.52698	423.48303	1025.78381	-1334.7262	482.23804	900.12457	-1310.31836	435.49857	902.93951	-1342.24707	455.68936	838.82019	-1346.98474	445.27295	1496.10571	-850.90149	429.70108	1305.12683	-765.17889	456.63062	1160.01563	-746.32794	502.36154	1047.40417	-729.80304	567.65338	929.49237	-753.49652	523.35944	919.23651	-718.31262	569.0022	861.92767	-719.88098	571.56458	999.67102	-1166.57959	552.2724	973.59351	-911.04095	354.62021	1034.18152	-1102.27954	340.36252	1027.11206	-988.15594	538.67987	687.42261	-1222.22705	521.41821	483.00131	-1188.36328	476.49469	291.99222	-1185.14368	488.6048	72.03664	-1140.85681	453.91241	44.79292	-1088.99353	645.53058	37.99566	-1154.13574	476.72772	671.47113	-829.65149	486.81384	472.87329	-832.5415	342.27353	360.81253	-844.61682	210.70511	224.37759	-889.89337	168.08513	195.5126	-958.22174	265.8287	82.32387	-836.06403	396.44473	1801.45776	-1015.86047	2845.92407	1034.08704	-3356.9126	NaN	NaN	NaN
222	2.21	530.29828	1758.61365	-1088.3158	511.20456	1738.30579	-945.57599	419.10165	1660.98291	-1116.91125	388.33759	1636.60779	-978.59204	371.70569	1524.72644	-1037.85938	326.75891	1248.8717	-1034.55054	514.07178	1462.55676	-1050.03601	572.81915	1293.04309	-1038.79028	320.49432	1349.81824	-971.85175	440.13776	1498.67163	-1218.99585	426.91086	1296.97681	-1304.47839	427.08554	1157.28564	-1319.22021	441.73712	1027.04529	-1336.77466	502.8869	903.33502	-1310.69312	456.6814	904.75665	-1343.82373	478.99612	841.35535	-1347.90759	453.15207	1496.62561	-852.17596	436.06461	1305.6958	-766.8736	461.33255	1160.45898	-748.42023	506.01617	1047.39966	-731.53772	569.46436	928.44824	-755.08661	525.34308	918.92621	-719.98157	569.85358	860.76892	-721.38556	579.20935	999.71143	-1167.78735	559.59991	975.21289	-911.78607	362.28415	1035.17908	-1103.74219	348.03455	1028.21252	-989.87421	542.95227	687.08801	-1223.02271	522.70068	483.02359	-1189.12793	476.23688	292.2951	-1184.81335	488.55264	72.09779	-1140.69763	453.87997	44.92899	-1088.96399	645.51245	37.95193	-1154.24805	490.25171	673.03168	-830.05798	502.83469	474.65646	-833.68475	359.93216	360.82233	-846.5863	231.14146	221.76192	-891.67114	188.93335	191.13838	-960.08746	289.44995	82.37475	-835.74121	405.15079	1802.29639	-1016.70148	2845.28931	1033.8418	-3360.38916	NaN	NaN	NaN
223	2.22	539.23944	1759.49609	-1088.80457	519.82104	1738.91687	-946.14581	428.08792	1661.9447	-1117.91345	396.93439	1637.64185	-979.56384	380.22739	1525.64697	-1039.51123	334.91714	1250.01306	-1036.74768	522.53485	1463.2699	-1051.00903	580.88208	1293.57239	-1039.93298	328.79349	1350.5885	-973.91089	449.89185	1500.04895	-1220.31348	439.28522	1298.60681	-1306.83081	441.85587	1158.80029	-1321.89551	459.88843	1028.80408	-1338.69995	523.66943	906.80426	-1310.94348	477.98593	906.78766	-1344.75244	502.46579	844.38568	-1348.85388	460.99109	1497.12695	-853.42242	442.36288	1306.19519	-768.49945	466.29202	1160.60217	-750.24939	509.45795	1047.29224	-733.22888	571.46283	927.4162	-756.53186	527.33569	918.57172	-721.41187	570.8338	859.7569	-722.85559	586.59735	999.92206	-1169.07056	567.04327	976.88507	-912.68201	369.75418	1036.01343	-1105.01831	355.64035	1029.20227	-991.20477	546.86481	686.65363	-1223.79565	524.31366	482.92813	-1189.43372	476.17691	292.6055	-1184.58447	488.53708	72.14985	-1140.59473	453.87589	44.95736	-1088.87585	645.47253	37.9096	-1154.32556	503.48825	674.70154	-830.35266	518.63159	476.54681	-834.95178	377.73199	360.21783	-848.52893	252.05544	218.27205	-893.35651	210.54016	185.74692	-961.50116	314.00778	81.69903	-835.68915	413.8735	1803.12195	-1017.48505	2845.17407	1034.00769	-3360.28125	NaN	NaN	NaN
224	2.23	548.15851	1760.2063	-1089.18774	528.20251	1739.24731	-946.66626	437.03989	1662.82471	-1118.76685	405.76071	1638.10901	-980.24939	388.75473	1526.60132	-1041.06958	342.98331	1250.99756	-1038.87732	530.99817	1463.89514	-1051.92346	588.82031	1293.98352	-1041.01294	336.69482	1351.47925	-976.04132	459.55261	1501.45361	-1221.51831	451.63626	1300.24854	-1308.7959	456.67581	1160.40906	-1324.40186	478.17526	1030.63757	-1340.44495	544.25262	910.58197	-1311.09631	499.31207	909.15497	-1345.82788	525.85223	847.37177	-1349.1416	468.86975	1497.53284	-854.68695	448.80609	1306.7229	-769.93103	470.92761	1160.96472	-752.01282	512.80505	1047.073	-734.82648	573.44122	926.4245	-757.92267	528.60681	917.96399	-723.10895	571.92169	858.81665	-724.2262	593.74365	1000.24512	-1170.34192	574.60834	978.42767	-913.96466	377.13528	1036.67761	-1105.92029	363.26724	1030.01074	-992.19769	549.81616	686.24109	-1224.16357	525.82275	482.90652	-1190.01794	476.56815	292.86975	-1184.55774	488.4877	72.28514	-1140.57117	453.84497	45.03733	-1088.8031	645.48993	37.82009	-1154.37024	516.44189	676.2561	-830.73517	534.33923	478.21957	-836.28748	395.67767	359.14572	-850.26172	273.3197	214.1552	-894.84467	232.88667	179.28116	-962.65808	339.82516	80.34264	-835.83356	422.57297	1803.82605	-1018.14612	2845.16016	1034.13574	-3360.26855	NaN	NaN	NaN
